<svg width="159" height="69" viewBox="0 0 159 69" fill="none" xmlns="http://www.w3.org/2000/svg">
<path d="M5.83721 39.7357C5.83721 39.7357 10.4419 41.0932 13.064 39.7357C5.26163 36.5361 2.19186 30.9125 2.19186 26.2586C2.19186 18.8897 8.4593 13.3631 18.6919 18.211C18.6919 18.211 19.7791 12.4905 21.8256 9L23.6163 9.48479L21.4419 20.4411L19.4593 21.7985C9.99419 18.1141 5.26163 19.9563 5.26163 26.2586C5.26163 33.6274 15.9419 34.8878 15.9419 39.9297C15.9419 43.0323 11.593 45.0684 5.32558 42.3536L5.83721 39.7357ZM4.11047 48.8498L6.09302 47.3954C15.1744 50.1103 20.2907 45.5532 20.2907 40.2205C20.2907 36.0513 16.9651 31.3004 9.99419 29.3612L10.5698 26.7433C18.8837 28.4886 24 33.7243 24 39.9297C24 49.4316 16.3256 53.3099 6.86047 50.692C6.86047 50.692 6.09302 54.6673 3.7907 60L2 59.5152L4.11047 48.8498Z" fill="white"/>
<path fill-rule="evenodd" clip-rule="evenodd" d="M52.4963 40.0005C52.4963 42.022 51.8504 43.6687 50.5353 44.9406C49.2434 46.2126 47.6054 46.8485 45.6213 46.8485C44.56 46.8485 43.3834 46.6498 42.1376 46.2523C40.8918 45.8548 39.8536 45.3267 39.0461 44.6681L39 43.7141C39 41.8289 39.1615 40.0346 39.4614 38.3311H41.4455L42.8067 43.1009C43.9602 43.7595 45.2983 44.0889 46.7748 44.0889C47.813 43.4983 48.2975 42.5444 48.2975 41.227C48.2975 40.0232 47.7207 39.0125 46.498 38.1948L42.3452 35.6055C40.1535 34.061 39.0692 32.1191 39.0692 29.7796C39.0692 27.8036 39.7383 26.1909 41.0533 24.9417C42.3914 23.6925 44.0986 23.0679 46.175 23.0679C48.0206 23.0679 49.8432 23.4767 51.6658 24.2944C51.6658 26.702 51.5043 28.7802 51.1813 30.5291H48.9665L48.1821 26.7133C47.0978 26.0319 45.8058 25.714 44.3293 25.7594C43.4757 26.4181 43.0374 27.3379 43.0374 28.519C43.0374 29.2004 43.2911 29.8194 43.7756 30.3758C44.2601 30.9323 45.2752 31.6307 46.7748 32.4711C48.2744 33.3115 49.3818 34.0326 50.097 34.6345C50.8122 35.2364 51.3889 35.9746 51.8273 36.8491C52.2656 37.7235 52.4963 38.774 52.4963 40.0005Z" fill="white"/>
<path fill-rule="evenodd" clip-rule="evenodd" d="M60.2488 42.7521C60.764 42.7521 61.5601 42.6051 62.6139 42.3111L62.9183 43.9735L58.5862 46.5859C57.79 46.6311 57.0173 46.3032 56.2914 45.602C55.5654 44.9008 55.1908 44.1092 55.1673 43.2271V33.4221L53.2003 33.456L53.0833 31.6918C53.8092 31.0811 54.5585 30.5383 55.3547 30.0633L56.7597 25.6527H58.6799L59.1482 30.0633H63.012L63.0588 31.5221L61.6772 33.4899H59.2419V41.1915C59.2419 41.7795 59.3121 42.1867 59.476 42.4128C59.6165 42.639 59.8741 42.7521 60.2488 42.7521Z" fill="white"/>
<path d="M78.0219 44.4057L74.6321 46.59C74.194 46.5673 73.7328 46.3227 73.2716 45.8562C72.7873 45.3898 72.3953 44.8153 72.1186 44.1327L69.1208 46.4876L68.2446 46.5559C67.0916 46.5559 66.1231 46.135 65.3852 45.2931C64.6242 44.4512 64.2322 43.4387 64.2322 42.2555C64.2322 40.6173 64.9701 39.3203 66.3998 38.3647L71.6805 38.194V35.1565C71.6805 33.3362 71.2423 32.1758 70.3891 31.6752C69.5359 31.7434 68.8441 31.8913 68.3138 32.1189L67.8064 35.8049L65.4774 35.9073C65.0854 34.6559 64.8779 33.2793 64.8779 31.7776L64.9009 31.095C65.9155 30.5489 67.1377 30.0654 68.5674 29.6444C69.9741 29.2235 71.0579 29.013 71.7958 29.013C72.4876 29.013 73.1563 29.2406 73.802 29.6956C74.4476 30.1507 74.978 30.7423 75.3931 31.4704C75.6006 31.9027 75.6929 32.7673 75.7159 34.0643V42.2555C75.7159 42.8016 75.9465 43.0746 76.4077 43.0746L77.7682 42.8699L78.0219 44.4057ZM68.8441 43.5183C69.582 43.4956 70.5275 43.2112 71.6805 42.6651V40.2077L70.9887 40.1736C69.167 40.1736 68.2446 40.7879 68.2446 42.0166C68.2446 42.6309 68.4521 43.1315 68.8441 43.5183Z" fill="white"/>
<path d="M86.835 29.6642L87.833 29.5625C89.3416 29.5625 90.5717 30.3139 91.5465 31.8165C92.498 33.3191 92.9854 35.2003 92.9854 37.4599C92.9854 40.194 92.2659 42.4423 90.8038 44.2048C89.3648 45.9673 87.4849 46.8485 85.1872 46.8485C83.4929 46.8485 81.6594 46.3853 79.6866 45.4589V24.3428L77.6442 24.0717L77.4353 22.4448C78.9903 21.7217 80.6382 21.3263 82.4021 21.2585V21.2924L83.7482 22.7837V32.2741L86.835 29.6642ZM86.8582 43.9336C87.4384 43.3687 87.9258 42.5779 88.274 41.5611C88.5989 40.5442 88.7846 39.4822 88.7846 38.375C88.7846 36.9515 88.5061 35.7369 87.949 34.7314C87.4152 33.7259 86.6957 33.2231 85.7906 33.2231C85.2104 33.2231 84.5373 33.483 83.7482 34.0027V43.4252C84.398 43.8094 85.1639 44.0014 85.9995 44.0014L86.8582 43.9336Z" fill="white"/>
<path fill-rule="evenodd" clip-rule="evenodd" d="M99.2152 43.3818C100.06 43.7225 100.744 44.0631 101.201 44.4038L101.086 46.0731H93.2364L93.1679 44.9148C93.7156 44.5287 94.4002 44.154 95.2445 43.7906V24.1001L93.1907 23.8275L92.9854 22.1923C94.5599 21.4429 96.1801 21.0454 97.8688 21L99.2152 22.4989V43.3818Z" fill="white"/>
<path d="M112.504 38.0155L105.381 37.9138C105.451 39.5858 105.87 40.885 106.661 41.8113C107.453 42.7377 108.43 43.2009 109.641 43.2009C110.665 43.2009 111.852 42.7942 113.225 41.9808L113.807 43.777L109.431 46.5222L108.523 46.59C106.475 46.59 104.799 45.8049 103.472 44.2346C102.146 42.6643 101.494 40.6703 101.494 38.2527C101.494 35.7222 102.169 33.5927 103.496 31.8642C104.846 30.1357 106.475 29.2715 108.384 29.2715C110.06 29.2715 111.433 29.8985 112.504 31.1525C113.575 32.4065 114.11 34.0389 114.11 36.0498L112.504 38.0155ZM107.406 31.8472C106.452 32.5251 105.823 33.7678 105.544 35.5753L110.386 35.2703C110.246 34.2987 109.897 33.4853 109.361 32.8301C108.803 32.1749 108.151 31.8472 107.406 31.8472Z" fill="white"/>
<path d="M120.608 37.9785V43.7506L123.95 44.3312L123.926 46.0731H114.296L114.11 44.9801C114.69 44.5475 115.456 44.0921 116.361 43.614V25.6488L114.319 25.3415L114.342 23.5996L123.323 23.3264C125.481 23.3264 127.222 24.0265 128.545 25.4268C129.891 26.8272 130.54 28.5975 130.54 30.7378C130.54 32.7643 129.914 34.4606 128.661 35.8268C127.384 37.193 125.76 37.8988 123.787 37.9444L120.608 37.9785ZM120.608 26.5027V34.9388C121.35 35.1209 122.07 35.212 122.743 35.212C123.88 35.212 124.739 34.7737 125.319 33.8971C125.899 33.0205 126.177 31.9446 126.177 30.6695C126.177 29.6904 126.015 28.7569 125.737 27.8689C125.435 26.9809 125.017 26.3547 124.483 25.9904L120.608 26.5027Z" fill="white"/>
<path d="M144.33 44.4057L140.958 46.59C140.519 46.5673 140.057 46.3227 139.572 45.8562C139.087 45.3898 138.717 44.8153 138.44 44.1327L135.414 46.4876L134.559 46.5559C133.381 46.5559 132.434 46.135 131.672 45.2931C130.91 44.4512 130.54 43.4387 130.54 42.2555C130.54 40.6173 131.256 39.3203 132.688 38.3647L138.001 38.194V35.1565C138.001 33.3362 137.562 32.1758 136.684 31.6752C135.83 31.7434 135.137 31.8913 134.606 32.1189L134.121 35.8049L131.788 35.9073C131.372 34.6559 131.164 33.2793 131.164 31.7776L131.187 31.095C132.226 30.5489 133.428 30.0654 134.86 29.6444C136.269 29.2235 137.354 29.013 138.093 29.013C138.786 29.013 139.456 29.2406 140.103 29.6956C140.773 30.1507 141.304 30.7423 141.697 31.4704C141.905 31.9027 142.02 32.7673 142.043 34.0643V42.2555C142.043 42.8016 142.274 43.0746 142.736 43.0746L144.076 42.8699L144.33 44.4057ZM135.137 43.5183C135.876 43.4956 136.823 43.2112 138.001 42.6651V40.2077L137.308 40.1736C135.46 40.1736 134.559 40.7879 134.559 42.0166C134.559 42.6309 134.744 43.1315 135.137 43.5183Z" fill="white"/>
<path fill-rule="evenodd" clip-rule="evenodd" d="M159 31.5482C158.491 31.9121 157.982 32.2078 157.45 32.4353C156.34 37.2801 155.369 41.0446 154.559 43.7286C153.819 45.9121 152.871 47.8228 151.691 49.4605C150.535 51.0982 149.031 52.5539 147.204 53.8277L145.053 49.3581C147.505 48.5165 149.378 47.4247 150.697 46.0827C149.933 45.8553 149.239 45.48 148.615 44.9568L145.03 32.8106L143.156 31.8212V30.047H150.535L150.627 31.5482L149.17 32.4353L150.743 38.9519L151.09 41.9203H151.599C152.385 38.8041 152.963 35.6652 153.356 32.5035L151.922 31.8212L151.946 30.047H158.907L159 31.5482Z" fill="white"/>
</svg>
