<svg width="335" height="284" viewBox="0 0 335 284" fill="none" xmlns="http://www.w3.org/2000/svg">
<path d="M252.714 16.8153L253.694 149.508C253.694 149.508 253.688 153 258.102 153C263 153 263 149.508 263 149.508V8.33494C263 8.33494 263.057 2.71889 260.551 1.35111C258.137 0.0337734 253.694 2.84764 253.694 2.84764L167 70.1917V149.009C167 149.009 167 152.002 171.408 152.002C175.817 152.002 176.306 149.009 176.306 149.009L177.286 74.6813L252.714 16.8153Z" fill="white" stroke="white"/>
<path d="M61.5001 16.5L60.5001 149.5C60.5001 149.5 60.5058 153 56 153C51.0001 153 51.0001 149.5 51.0001 149.5V7.99999C51.0001 7.99999 50.9415 2.37094 53.5001 0.999993C55.9644 -0.320392 60.5001 2.49999 60.5001 2.49999L149 70V149C149 149 149 152 144.5 152C140 152 139.5 149 139.5 149L138.5 74.5L61.5001 16.5Z" fill="white" stroke="white"/>
<path d="M20.3613 188.906L43.6035 246.914L66.8457 188.906H79.0039V260H69.6289V232.314L70.5078 202.432L47.168 260H39.9902L16.6992 202.578L17.627 232.314V260H8.25195V188.906H20.3613ZM135.693 241.445H105.908L99.2188 260H89.5508L116.699 188.906H124.902L152.1 260H142.48L135.693 241.445ZM108.74 233.73H132.91L120.801 200.479L108.74 233.73ZM179.736 226.943L171.045 235.977V260H161.67V188.906H171.045V224.062L202.637 188.906H213.965L185.986 220.303L216.162 260H204.932L179.736 226.943ZM264.551 227.139H233.74V252.334H269.531V260H224.365V188.906H269.043V196.621H233.74V219.473H264.551V227.139ZM307.275 231.24H290.576V260H281.152V188.906H304.688C312.695 188.906 318.848 190.729 323.145 194.375C327.474 198.021 329.639 203.327 329.639 210.293C329.639 214.72 328.434 218.577 326.025 221.865C323.649 225.153 320.329 227.611 316.064 229.238L332.764 259.414V260H322.705L307.275 231.24ZM290.576 223.574H304.98C309.635 223.574 313.33 222.37 316.064 219.961C318.831 217.552 320.215 214.329 320.215 210.293C320.215 205.898 318.896 202.529 316.26 200.186C313.656 197.842 309.88 196.654 304.932 196.621H290.576V223.574Z" fill="white"/>
</svg>
